<svg id="图层_1" data-name="图层 1" xmlns="http://www.w3.org/2000/svg" viewBox="0 0 557.5 565.64"><defs><style>.cls-1{fill:#fff;}.cls-2{fill:#dcdddd;}.cls-2,.cls-4{fill-rule:evenodd;}.cls-3,.cls-4{fill:#c9caca;}</style></defs><path class="cls-1" d="M327,138.17c-13.55-.16-25.5-.89-33.67-1.45-3.55-.24-6.61-.45-9.05-.56-13.87-.61-16,.54-24.07,4.86l-2.77,1.48c-11.4,6-22.2,11.55-32.78,16.43a271.32,271.32,0,0,1-31.56,12.47c-4.55,1.44-9.29,2.68-14.1,3.93-8.28,2.16-16.79,4.39-25.33,8-15.18,6.4-21.3,16-33.54,35.2-1.78,2.8-3.72,5.84-6.43,10-13.11,20.18-26.24,44.07-39.3,67.85C68.17,307.68,62,319,55.73,329.91c-2.63,4.63-4.22,7.76-3.89,10.19s2.54,4.39,7.52,7.08l12,6.45c19.5,10.5,39.3,21.17,58.4,32,7.24,4.12,8.29,2.48,12.26-3.76l1.2-1.86c5.87-9.08,15-15.93,18.9-26.16,3.73-9.79,5.33-23.79,4.7-32.65C165,296.66,148.45,272.41,151,245.16c2.64,36.58,21,66.24,25.87,81.26,2.93,14.23,5,25.21,4.6,39.63-1.69,59-.35,117.87-.08,176.75.2,42.46.4,85,.26,127.59v0a15,15,0,0,1-2.09,7.21c-.32.64-.63,1.25-.84,1.77-1,2.42-.31,4.57,9,8.33,20.22,8.16,91.91,8.21,137.64,8.25h4.68c45.73,0,117.42-.09,137.64-8.25,9.29-3.76,10-5.91,9-8.33-.21-.52-.52-1.13-.84-1.77a15,15,0,0,1-2.09-7.21v0c-.14-42.63.06-85.13.26-127.59.27-58.88,1.61-117.72-.08-176.75-.41-14.42,1.67-25.4,4.61-39.63,4.88-15,23.22-44.68,25.86-81.26,2.59,27.25-14,51.5-15.73,76.06-.63,8.86,1,22.86,4.71,32.65,3.9,10.23,13,17.08,18.89,26.16l1.2,1.86c4,6.24,5,7.88,12.26,3.76,19.11-10.85,38.9-21.52,58.4-32l12-6.45c5-2.69,7.2-4.74,7.52-7.08s-1.26-5.56-3.89-10.19c-6.24-11-12.44-22.23-18.64-33.53-13.06-23.78-26.18-47.67-39.3-67.85-2.71-4.18-4.65-7.22-6.43-10-12.24-19.2-18.36-28.8-33.53-35.2-8.55-3.59-17.06-5.82-25.33-8-4.82-1.25-9.56-2.49-14.1-3.93a271.46,271.46,0,0,1-31.57-12.47c-10.58-4.88-21.38-10.42-32.78-16.43L395.26,141c-8.06-4.32-10.2-5.47-24.07-4.86-2.44.11-5.5.32-9.05.56-8.2.56-20.19,1.3-33.8,1.45a7.76,7.76,0,0,1-1.37,0Z" transform="translate(-48.97 -133.17)"/><path class="cls-2" d="M151.12,251.76c-3.85,17.89,1.8,37.69,4.4,54,1.71,10.64-2.58,7.54-6.23,1.49-5.08-8.41-5.42-17.12-6.16-23.12-1.42,7.48-1.78,18.14,1.63,27,3.77,9.79,11.8,15.42,13.56,26.89,2.56,16.8-10.19,29.93-17.48,46.51,13-15.44,24.07-24.2,26.74-44.9,4.16-32.16-16.81-64.74-16.46-87.85Z" transform="translate(-48.97 -133.17)"/><path class="cls-2" d="M504.33,251.76c3.84,17.89-1.81,37.69-4.41,54-1.7,10.64,2.58,7.54,6.24,1.49,5.08-8.41,5.41-17.12,6.15-23.12,1.42,7.48,1.78,18.14-1.63,27-3.76,9.79-11.8,15.42-13.55,26.89-2.57,16.8,10.18,29.93,17.47,46.51-13-15.44-24.07-24.2-26.74-44.9-4.15-32.16,16.81-64.74,16.47-87.85Z" transform="translate(-48.97 -133.17)"/><path class="cls-3" d="M277.84,146.23c-6.57-.9-13.75.21-12,8.42,9.45,44.79,114.15,44.74,123.59,0,1.73-8.21-5.45-9.32-12-8.42-18.48,1.79-33.82,3-49.86,3-15.54,0-31.78-1.23-49.69-3ZM264,154.9c-3-10.88,4.73-13.15,14.59-11.8,16.59,1.63,32.82,2.78,49.06,2.78s32.48-1.15,49.06-2.78c9.86-1.35,17.56.92,14.59,11.8-13.24,48.48-114.07,48.46-127.3,0Z" transform="translate(-48.97 -133.17)"/><path class="cls-4" d="M253.24,150.2c5.47,40.24,34.26,52.83,73.66,52.86v4c-42.46-1.34-71.41-16-73.66-56.9Zm73.66,52.86v4c42.45-1.34,71.4-16,73.65-56.9-5.46,40.24-34.26,52.83-73.65,52.86Z" transform="translate(-48.97 -133.17)"/><path class="cls-3" d="M334.42,698.8H321c-46,0-114.25-.34-134.34-8.46-11.6-4.69-12.17-8-10.55-12,.28-.7.6-1.33.93-2a12.76,12.76,0,0,0,1.79-5.92v0c.14-42.63-.06-85.13-.26-127.6-.28-60.44-.57-120.81.13-181.44.1-9-1-15.94-4.1-18.77a91.6,91.6,0,0,1-13.42,22.78c-4.69,5.72-11.55,9.81-15.67,16.19l-1.18,1.85c-5.11,8-6.46,10.13-16,4.69-19-10.78-38.82-21.47-58.35-32L58,349.68c-5.87-3.18-8.52-5.84-9-9.21s1.31-6.81,4.23-12c6.14-10.78,12.37-22.13,18.62-33.5C85,271.22,98.1,247.3,111.3,227c2-3,4.27-6.64,6.41-10,12.55-19.68,18.82-29.52,34.83-36.27,8.74-3.68,17.34-5.93,25.72-8.11,4.7-1.23,9.33-2.44,14-3.9a268.89,268.89,0,0,0,31.23-12.34C234,151.51,244.74,146,256.09,140l2.76-1.47c8.62-4.62,10.9-5.85,25.52-5.2,2.63.12,5.64.32,9.12.56,8.32.56,20.48,1.32,34.23,1.45,13.75-.13,25.91-.89,34.23-1.45,3.49-.24,6.49-.44,9.12-.56,14.62-.65,16.9.58,25.52,5.2l2.76,1.47c11.36,6,22.11,11.51,32.65,16.36a269.6,269.6,0,0,0,31.23,12.34c4.62,1.46,9.25,2.67,13.95,3.9,8.38,2.18,17,4.43,25.72,8.11,16,6.75,22.29,16.59,34.83,36.27,2.14,3.37,4.45,7,6.41,10,13.2,20.31,26.34,44.23,39.41,68,6.25,11.37,12.48,22.72,18.62,33.5,2.92,5.14,4.67,8.68,4.23,12s-3.11,6-9,9.21l-11.95,6.44c-19.53,10.52-39.36,21.21-58.34,32-9.59,5.44-10.94,3.34-16.05-4.69-.62-1-1.08-1.7-1.17-1.85-4.13-6.38-11-10.47-15.68-16.19a91.91,91.91,0,0,1-13.42-22.78c-3.06,2.83-4.2,9.73-4.09,18.77.69,60.63.41,121,.12,181.44-.2,42.47-.4,85-.25,127.6v0a12.64,12.64,0,0,0,1.78,5.92c.34.66.65,1.29.93,2,1.62,4,1.05,7.31-10.55,12-20.09,8.12-88.33,8.42-134.33,8.46ZM327,138.17c-13.55-.16-25.5-.89-33.67-1.45-3.55-.24-6.61-.45-9.05-.56-13.87-.61-16,.54-24.07,4.86l-2.77,1.48c-11.4,6-22.2,11.55-32.78,16.43a271.32,271.32,0,0,1-31.56,12.47c-4.55,1.44-9.29,2.68-14.1,3.93-8.28,2.16-16.79,4.39-25.33,8-15.18,6.4-21.3,16-33.54,35.2-1.78,2.8-3.72,5.84-6.43,10-13.11,20.18-26.24,44.07-39.3,67.85C68.17,307.68,62,319,55.73,329.91c-2.63,4.63-4.22,7.76-3.89,10.19s2.54,4.39,7.52,7.08l12,6.45c19.5,10.5,39.3,21.17,58.4,32,7.24,4.12,8.29,2.48,12.26-3.76l1.2-1.86c5.87-9.08,15-15.93,18.9-26.16,3.73-9.79,5.33-23.79,4.7-32.65C165,296.66,148.45,272.41,151,245.16c2.64,36.58,21,66.24,25.87,81.26,2.93,14.23,5,25.21,4.6,39.63-1.69,59-.35,117.87-.08,176.75.2,42.46.4,85,.26,127.59v0a15,15,0,0,1-2.09,7.21c-.32.64-.63,1.25-.84,1.77-1,2.42-.31,4.57,9,8.33,20.22,8.16,91.91,8.21,137.64,8.25h4.68c45.73,0,117.42-.09,137.64-8.25,9.29-3.76,10-5.91,9-8.33-.21-.52-.52-1.13-.84-1.77a15,15,0,0,1-2.09-7.21v0c-.14-42.63.06-85.13.26-127.59.27-58.88,1.61-117.72-.08-176.75-.41-14.42,1.67-25.4,4.61-39.63,4.88-15,23.22-44.68,25.86-81.26,2.59,27.25-14,51.5-15.73,76.06-.63,8.86,1,22.86,4.71,32.65,3.9,10.23,13,17.08,18.89,26.16l1.2,1.86c4,6.24,5,7.88,12.26,3.76,19.11-10.85,38.9-21.52,58.4-32l12-6.45c5-2.69,7.2-4.74,7.52-7.08s-1.26-5.56-3.89-10.19c-6.24-11-12.44-22.23-18.64-33.53-13.06-23.78-26.18-47.67-39.3-67.85-2.71-4.18-4.65-7.22-6.43-10-12.24-19.2-18.36-28.8-33.53-35.2-8.55-3.59-17.06-5.82-25.33-8-4.82-1.25-9.56-2.49-14.1-3.93a271.46,271.46,0,0,1-31.57-12.47c-10.58-4.88-21.38-10.42-32.78-16.43L395.26,141c-8.06-4.32-10.2-5.47-24.07-4.86-2.44.11-5.5.32-9.05.56-8.2.56-20.19,1.3-33.8,1.45a7.76,7.76,0,0,1-1.37,0Z" transform="translate(-48.97 -133.17)"/><path class="cls-3" d="M334.42,698.8H321c-46,0-114.25-.34-134.34-8.46-11.6-4.69-12.17-8-10.55-12,.28-.7.6-1.33.93-2a12.76,12.76,0,0,0,1.79-5.92v0c.14-42.63-.06-85.13-.26-127.6-.28-60.44-.57-120.81.13-181.44.1-9-1-15.94-4.1-18.77a91.6,91.6,0,0,1-13.42,22.78c-4.69,5.72-11.55,9.81-15.67,16.19l-1.18,1.85c-5.11,8-6.46,10.13-16,4.69-19-10.78-38.82-21.47-58.35-32L58,349.68c-5.87-3.18-8.52-5.84-9-9.21s1.31-6.81,4.23-12c6.14-10.78,12.37-22.13,18.62-33.5C85,271.22,98.1,247.3,111.3,227c2-3,4.27-6.64,6.41-10,12.55-19.68,18.82-29.52,34.83-36.27,8.74-3.68,17.34-5.93,25.72-8.11,4.7-1.23,9.33-2.44,14-3.9a268.89,268.89,0,0,0,31.23-12.34C234,151.51,244.74,146,256.09,140l2.76-1.47c8.62-4.62,10.9-5.85,25.52-5.2,2.63.12,5.64.32,9.12.56,8.32.56,20.48,1.32,34.23,1.45,13.75-.13,25.91-.89,34.23-1.45,3.49-.24,6.49-.44,9.12-.56,14.62-.65,16.9.58,25.52,5.2l2.76,1.47c11.36,6,22.11,11.51,32.65,16.36a269.6,269.6,0,0,0,31.23,12.34c4.62,1.46,9.25,2.67,13.95,3.9,8.38,2.18,17,4.43,25.72,8.11,16,6.75,22.29,16.59,34.83,36.27,2.14,3.37,4.45,7,6.41,10,13.2,20.31,26.34,44.23,39.41,68,6.25,11.37,12.48,22.72,18.62,33.5,2.92,5.14,4.67,8.68,4.23,12s-3.11,6-9,9.21l-11.95,6.44c-19.53,10.52-39.36,21.21-58.34,32-9.59,5.44-10.94,3.34-16.05-4.69-.62-1-1.08-1.7-1.17-1.85-4.13-6.38-11-10.47-15.68-16.19a91.91,91.91,0,0,1-13.42-22.78c-3.06,2.83-4.2,9.73-4.09,18.77.69,60.63.41,121,.12,181.44-.2,42.47-.4,85-.25,127.6v0a12.64,12.64,0,0,0,1.78,5.92c.34.66.65,1.29.93,2,1.62,4,1.05,7.31-10.55,12-20.09,8.12-88.33,8.42-134.33,8.46ZM327,138.17c-13.55-.16-25.5-.89-33.67-1.45-3.55-.24-6.61-.45-9.05-.56-13.87-.61-16,.54-24.07,4.86l-2.77,1.48c-11.4,6-22.2,11.55-32.78,16.43a271.32,271.32,0,0,1-31.56,12.47c-4.55,1.44-9.29,2.68-14.1,3.93-8.28,2.16-16.79,4.39-25.33,8-15.18,6.4-21.3,16-33.54,35.2-1.78,2.8-3.72,5.84-6.43,10-13.11,20.18-26.24,44.07-39.3,67.85C68.17,307.68,62,319,55.73,329.91c-2.63,4.63-4.22,7.76-3.89,10.19s2.54,4.39,7.52,7.08l12,6.45c19.5,10.5,39.3,21.17,58.4,32,7.24,4.12,8.29,2.48,12.26-3.76l1.2-1.86c5.87-9.08,15-15.93,18.9-26.16,3.73-9.79,5.33-23.79,4.7-32.65C165,296.66,148.45,272.41,151,245.16c2.64,36.58,21,66.24,25.87,81.26,2.93,14.23,5,25.21,4.6,39.63-1.69,59-.35,117.87-.08,176.75.2,42.46.4,85,.26,127.59v0a15,15,0,0,1-2.09,7.21c-.32.64-.63,1.25-.84,1.77-1,2.42-.31,4.57,9,8.33,20.22,8.16,91.91,8.21,137.64,8.25h4.68c45.73,0,117.42-.09,137.64-8.25,9.29-3.76,10-5.91,9-8.33-.21-.52-.52-1.13-.84-1.77a15,15,0,0,1-2.09-7.21v0c-.14-42.63.06-85.13.26-127.59.27-58.88,1.61-117.72-.08-176.75-.41-14.42,1.67-25.4,4.61-39.63,4.88-15,23.22-44.68,25.86-81.26,2.59,27.25-14,51.5-15.73,76.06-.63,8.86,1,22.86,4.71,32.65,3.9,10.23,13,17.08,18.89,26.16l1.2,1.86c4,6.24,5,7.88,12.26,3.76,19.11-10.85,38.9-21.52,58.4-32l12-6.45c5-2.69,7.2-4.74,7.52-7.08s-1.26-5.56-3.89-10.19c-6.24-11-12.44-22.23-18.64-33.53-13.06-23.78-26.18-47.67-39.3-67.85-2.71-4.18-4.65-7.22-6.43-10-12.24-19.2-18.36-28.8-33.53-35.2-8.55-3.59-17.06-5.82-25.33-8-4.82-1.25-9.56-2.49-14.1-3.93a271.46,271.46,0,0,1-31.57-12.47c-10.58-4.88-21.38-10.42-32.78-16.43L395.26,141c-8.06-4.32-10.2-5.47-24.07-4.86-2.44.11-5.5.32-9.05.56-8.2.56-20.19,1.3-33.8,1.45a7.76,7.76,0,0,1-1.37,0Z" transform="translate(-48.97 -133.17)"/></svg>